<svg width="126" height="126" viewBox="0 0 126 126" fill="none" xmlns="http://www.w3.org/2000/svg">
<g clip-path="url(#clip0_11_11)">
<path d="M3.09875 100.984C2.67209 100.515 2.45875 99.96 2.45875 99.32C2.45875 98.68 2.67209 98.0613 3.09875 97.464C4.59209 96.7387 6.22409 95.768 7.99475 94.552C9.76542 93.3147 11.2481 92.3333 12.4428 91.608C13.6374 90.8827 14.6614 90.52 15.5148 90.52C16.5814 90.52 17.3494 91.576 17.8188 93.688C16.4748 94.1573 14.5761 95.128 12.1228 96.6C9.69075 98.0507 8.17609 98.9253 7.57875 99.224C8.19742 99.5227 9.71209 100.397 12.1228 101.848C14.5334 103.277 16.4321 104.248 17.8188 104.76C17.3494 106.872 16.5814 107.928 15.5148 107.928C14.6614 107.928 13.6374 107.565 12.4428 106.84C11.2481 106.115 9.76542 105.144 7.99475 103.928C6.22409 102.691 4.59209 101.709 3.09875 100.984ZM53.7265 14.616C54.4092 15.9813 54.7932 17.2613 54.8785 18.456C55.0492 19.6507 55.1345 21.8267 55.1345 24.984C55.1345 28.1413 54.0678 37.016 51.9345 51.608L50.7825 59.032C62.3025 49.56 72.0305 40.3867 79.9665 31.512C87.9025 22.552 93.4918 14.9573 96.7345 8.728C99.5505 13.6773 100.959 18.5413 100.959 23.32C100.959 28.0133 98.5265 32.8347 93.6625 37.784C88.8838 42.7333 81.6305 48.792 71.9025 55.96C77.8758 74.8187 84.5745 89.4107 91.9985 99.736C95.1558 104.088 99.1665 108.824 104.031 113.944C100.873 114.797 97.7158 115.224 94.5585 115.224C91.4012 115.224 88.1585 114.243 84.8305 112.28C81.5025 110.317 78.6012 107.928 76.1265 105.112C73.7372 102.296 71.2625 98.5413 68.7025 93.848C65.0332 86.936 61.0652 77.848 56.7985 66.584C54.4092 68.376 51.8065 70.2107 48.9905 72.088C47.4545 84.8027 46.6865 94.4453 46.6865 101.016C46.6865 107.501 47.2838 112.152 48.4785 114.968C41.2252 113.091 36.2758 110.616 33.6305 107.544C30.9852 104.387 29.6625 100.035 29.6625 94.488C29.6625 91.2453 30.5585 83.0107 32.3505 69.784C35.5078 47.8533 37.0865 30.872 37.0865 18.84C37.0865 16.28 36.9158 12.7813 36.5745 8.34399C43.0598 8.68533 47.7958 9.70933 50.7825 11.416C52.0625 12.0987 53.0438 13.1653 53.7265 14.616ZM122.897 100.984C121.404 101.709 119.772 102.691 118.001 103.928C116.231 105.144 114.748 106.115 113.553 106.84C112.359 107.565 111.335 107.928 110.481 107.928C109.415 107.928 108.647 106.872 108.177 104.76C109.564 104.248 111.463 103.277 113.873 101.848C116.284 100.397 117.799 99.5227 118.417 99.224C117.82 98.9253 116.295 98.0507 113.841 96.6C111.409 95.128 109.521 94.1573 108.177 93.688C108.647 91.576 109.415 90.52 110.481 90.52C111.335 90.52 112.359 90.8827 113.553 91.608C114.748 92.3333 116.231 93.3147 118.001 94.552C119.772 95.768 121.404 96.7387 122.898 97.464C123.324 98.0613 123.537 98.68 123.537 99.32C123.537 99.96 123.324 100.515 122.897 100.984Z" fill="#EA580C"/>
</g>
<defs>
<clipPath id="clip0_11_11">
<rect width="126" height="126" fill="white"/>
</clipPath>
</defs>
</svg>
